<svg xmlns="http://www.w3.org/2000/svg" viewBox="0 0 79.26 63.99"><defs><style>.cls-1,.cls-2,.cls-3{fill:none;stroke-linecap:round;stroke-width:3px;}.cls-1{stroke:#f3d24c;}.cls-1,.cls-2{stroke-miterlimit:10;}.cls-2{stroke:#63b3ed;}.cls-3{stroke:#bee3f8;stroke-linejoin:round;}</style></defs><g id="Layer_2" data-name="Layer 2"><g id="Icons"><line class="cls-1" x1="46.79" y1="10.99" x2="43.34" y2="1.5"/><line class="cls-1" x1="38.49" y1="17.96" x2="29.74" y2="12.91"/><line class="cls-1" x1="57.63" y1="10.99" x2="61.08" y2="1.5"/><line class="cls-1" x1="65.93" y1="17.96" x2="74.68" y2="12.91"/><line class="cls-1" x1="67.81" y1="28.63" x2="77.76" y2="30.39"/><line class="cls-1" x1="62.39" y1="38.02" x2="68.88" y2="45.76"/><path class="cls-1" d="M42.82,20.28a10.82,10.82,0,0,1,9.39-5.52A11,11,0,0,1,63.09,25.88a11.18,11.18,0,0,1-4.85,9.25"/><path class="cls-2" d="M20,55.46H13A11.51,11.51,0,1,1,16.5,33,16.83,16.83,0,0,1,49.11,36.9a9.23,9.23,0,0,1,1.18-.09,9.33,9.33,0,0,1,0,18.65H41.18"/><line class="cls-3" x1="30.55" y1="62.49" x2="30.55" y2="50.28"/><line class="cls-3" x1="35.84" y1="53.33" x2="25.27" y2="59.44"/><line class="cls-3" x1="25.27" y1="53.33" x2="35.84" y2="59.44"/></g></g></svg>