<svg xmlns="http://www.w3.org/2000/svg" viewBox="0 0 76.21 65.43"><defs><style>.cls-1,.cls-2{fill:none;stroke-linecap:round;stroke-width:3px;}.cls-1{stroke:#bee3f8;stroke-linejoin:round;}.cls-2{stroke:#63b3ed;stroke-miterlimit:10;}</style></defs><g id="Layer_2" data-name="Layer 2"><g id="Icons"><path class="cls-1" d="M63.23,38.93A19.85,19.85,0,0,0,74.71,28.07a19,19,0,0,1-7.48,1.52,19.83,19.83,0,0,1-19.6-20,20.12,20.12,0,0,1,1.66-8A19.94,19.94,0,0,0,37.76,15.1"/><line class="cls-1" x1="34.59" y1="63.93" x2="34.59" y2="51.72"/><line class="cls-1" x1="39.87" y1="54.77" x2="29.3" y2="60.88"/><line class="cls-1" x1="29.3" y1="54.77" x2="39.88" y2="60.88"/><line class="cls-1" x1="23.71" y1="52.43" x2="23.71" y2="45.07"/><line class="cls-1" x1="26.89" y1="46.91" x2="20.52" y2="50.59"/><line class="cls-1" x1="20.52" y1="46.91" x2="26.89" y2="50.59"/><path class="cls-2" d="M15.33,52.43H13A11.51,11.51,0,1,1,16.5,30a16.83,16.83,0,0,1,32.61,3.92,9.32,9.32,0,1,1,1.18,18.56H44.83"/></g></g></svg>