<svg xmlns="http://www.w3.org/2000/svg" viewBox="0 0 61.11 54.17"><defs><style>.cls-1,.cls-3{fill:none;stroke-linecap:round;stroke-width:3px;}.cls-1{stroke:#63b3ed;stroke-miterlimit:10;}.cls-2{fill:#bee3f8;}.cls-3{stroke:#bee3f8;stroke-linejoin:round;}</style></defs><g id="Layer_2" data-name="Layer 2"><g id="Icons"><path class="cls-1" d="M13,35.19A11.51,11.51,0,1,1,16.5,12.71a16.83,16.83,0,0,1,32.61,3.92,9.23,9.23,0,0,1,1.18-.09,9.33,9.33,0,0,1,0,18.65"/><path class="cls-2" d="M35.3,31.58a2.76,2.76,0,1,1-5.52,0c0-1.73,2.76-5.22,2.76-5.22S35.3,29.85,35.3,31.58Z"/><path class="cls-2" d="M32.05,50.42a3.69,3.69,0,1,1-7.37,0c0-2.31,3.68-7,3.68-7S32.05,48.11,32.05,50.42Z"/><line class="cls-3" x1="20.55" y1="41.06" x2="20.55" y2="33.7"/><line class="cls-3" x1="23.74" y1="35.54" x2="17.36" y2="39.22"/><line class="cls-3" x1="17.37" y1="35.54" x2="23.74" y2="39.22"/><line class="cls-3" x1="41.54" y1="48.81" x2="41.54" y2="36.6"/><line class="cls-3" x1="46.83" y1="39.66" x2="36.26" y2="45.76"/><line class="cls-3" x1="36.26" y1="39.66" x2="46.83" y2="45.76"/></g></g></svg>