<svg xmlns="http://www.w3.org/2000/svg" viewBox="0 0 79.26 79.04"><defs><style>.cls-1,.cls-3{fill:none;stroke-linecap:round;stroke-miterlimit:10;stroke-width:3px;}.cls-1{stroke:#f3d24c;}.cls-2{fill:#f3d24c;}.cls-3{stroke:#63b3ed;}</style></defs><g id="Layer_2" data-name="Layer 2"><g id="Icons"><line class="cls-1" x1="46.79" y1="10.99" x2="43.34" y2="1.5"/><line class="cls-1" x1="38.49" y1="17.96" x2="29.74" y2="12.91"/><line class="cls-1" x1="57.63" y1="10.99" x2="61.08" y2="1.5"/><line class="cls-1" x1="65.93" y1="17.96" x2="74.68" y2="12.91"/><line class="cls-1" x1="67.81" y1="28.63" x2="77.76" y2="30.39"/><line class="cls-1" x1="62.39" y1="38.02" x2="68.88" y2="45.75"/><path class="cls-1" d="M42.82,20.28a10.82,10.82,0,0,1,9.39-5.52A11,11,0,0,1,63.08,25.88a11.14,11.14,0,0,1-4.84,9.24"/><polygon class="cls-2" points="25.03 39.04 35.36 39.04 29.49 55.24 37.65 55.24 25.49 79.04 28.36 59.54 22.03 59.54 25.03 39.04"/><path class="cls-3" d="M15.33,55.46H13A11.52,11.52,0,1,1,16.5,33a16.83,16.83,0,0,1,32.61,3.92,11.5,11.5,0,0,1,1.18-.08,9.33,9.33,0,0,1,0,18.65H44.83"/></g></g></svg>