<svg xmlns="http://www.w3.org/2000/svg" viewBox="0 0 88.08 53.84"><defs><style>.cls-1,.cls-2,.cls-3{fill:none;stroke-width:3px;}.cls-1,.cls-2{stroke:#63b3ed;stroke-miterlimit:10;}.cls-1,.cls-3{stroke-linecap:round;}.cls-3{stroke:#f3d24c;stroke-linejoin:round;}</style></defs><g id="Layer_2" data-name="Layer 2"><g id="Icons"><path class="cls-1" d="M9.57,37.14H8.27a6.77,6.77,0,0,1,0-13.54,6,6,0,0,1,.85.06,12.22,12.22,0,0,1,22.59-5.14"/><path class="cls-2" d="M62.16,33.7a9.23,9.23,0,0,0-1.18.08,16.83,16.83,0,0,0-32.61-3.92,11.51,11.51,0,1,0-3.49,22.48H62.16a9.32,9.32,0,1,0,0-18.64Z"/><path class="cls-3" d="M75.1,38.93A19.83,19.83,0,0,0,86.58,28.07a19.17,19.17,0,0,1-7.47,1.52,19.83,19.83,0,0,1-19.61-20,20.29,20.29,0,0,1,1.66-8A20,20,0,0,0,49.63,15.1"/></g></g></svg>