<svg xmlns="http://www.w3.org/2000/svg" viewBox="0 0 79.26 56.95"><defs><style>.cls-1,.cls-2{fill:none;stroke-miterlimit:10;stroke-width:3px;}.cls-1{stroke:#f3d24c;stroke-linecap:round;}.cls-2{stroke:#63b3ed;}</style></defs><g id="Layer_2" data-name="Layer 2"><g id="Icons"><line class="cls-1" x1="46.79" y1="10.99" x2="43.34" y2="1.5"/><line class="cls-1" x1="38.49" y1="17.96" x2="29.74" y2="12.91"/><line class="cls-1" x1="57.63" y1="10.99" x2="61.08" y2="1.5"/><line class="cls-1" x1="65.93" y1="17.96" x2="74.68" y2="12.91"/><line class="cls-1" x1="67.81" y1="28.63" x2="77.76" y2="30.39"/><line class="cls-1" x1="62.39" y1="38.02" x2="68.88" y2="45.75"/><path class="cls-1" d="M42.82,20.28a10.82,10.82,0,0,1,9.39-5.52A11,11,0,0,1,63.09,25.88a11.15,11.15,0,0,1-4.85,9.24"/><path class="cls-2" d="M50.29,36.81a11.5,11.5,0,0,0-1.18.08A16.83,16.83,0,0,0,16.5,33,11.51,11.51,0,1,0,13,55.45H50.29a9.32,9.32,0,0,0,0-18.64Z"/></g></g></svg>