<svg xmlns="http://www.w3.org/2000/svg" viewBox="0 0 76.21 71.42"><defs><style>.cls-1,.cls-2{fill:none;stroke-linecap:round;stroke-width:3px;}.cls-1{stroke:#bee3f8;stroke-linejoin:round;}.cls-2{stroke:#63b3ed;stroke-miterlimit:10;}.cls-3{fill:#bee3f8;}</style></defs><g id="Layer_2" data-name="Layer 2"><g id="Icons"><path class="cls-1" d="M63.23,38.93A19.85,19.85,0,0,0,74.71,28.07a19,19,0,0,1-7.48,1.52,19.83,19.83,0,0,1-19.6-20,20.12,20.12,0,0,1,1.66-8A19.94,19.94,0,0,0,37.76,15.1"/><path class="cls-2" d="M13,52.43A11.51,11.51,0,1,1,16.5,30a16.83,16.83,0,0,1,32.61,3.92,9.32,9.32,0,1,1,1.18,18.56"/><path class="cls-3" d="M35.3,48.83a2.76,2.76,0,1,1-5.52,0c0-1.73,2.76-5.22,2.76-5.22S35.3,47.1,35.3,48.83Z"/><path class="cls-3" d="M32.05,67.67a3.69,3.69,0,1,1-7.37,0c0-2.32,3.68-7,3.68-7S32.05,65.35,32.05,67.67Z"/><line class="cls-1" x1="20.55" y1="58.31" x2="20.55" y2="50.95"/><line class="cls-1" x1="23.74" y1="52.79" x2="17.36" y2="56.47"/><line class="cls-1" x1="17.37" y1="52.79" x2="23.74" y2="56.47"/><line class="cls-1" x1="41.54" y1="66.06" x2="41.54" y2="53.85"/><line class="cls-1" x1="46.83" y1="56.9" x2="36.26" y2="63"/><line class="cls-1" x1="36.26" y1="56.9" x2="46.83" y2="63"/></g></g></svg>