<svg xmlns="http://www.w3.org/2000/svg" viewBox="0 0 79.31 61.96"><defs><style>.cls-1,.cls-2{fill:none;stroke-linecap:round;stroke-miterlimit:10;stroke-width:3px;}.cls-1{stroke:#f3d24c;}.cls-2{stroke:#63b3ed;}</style></defs><g id="Layer_2" data-name="Layer 2"><g id="Icons"><line class="cls-1" x1="46.85" y1="10.99" x2="43.39" y2="1.5"/><line class="cls-1" x1="38.54" y1="17.96" x2="29.8" y2="12.91"/><line class="cls-1" x1="57.68" y1="10.99" x2="61.14" y2="1.5"/><line class="cls-1" x1="65.99" y1="17.96" x2="74.73" y2="12.91"/><line class="cls-1" x1="67.87" y1="28.63" x2="77.81" y2="30.39"/><line class="cls-1" x1="62.45" y1="38.02" x2="68.94" y2="45.75"/><path class="cls-1" d="M42.88,20.28a10.81,10.81,0,0,1,9.38-5.52A11,11,0,0,1,63.14,25.88a11.14,11.14,0,0,1-4.84,9.24"/><line class="cls-2" x1="40.6" y1="23.66" x2="17.23" y2="23.66"/><line class="cls-2" x1="57.93" y1="42.06" x2="18.61" y2="42.06"/><line class="cls-2" x1="13.46" y1="42.06" x2="6.85" y2="42.06"/><line class="cls-2" x1="38.7" y1="60.46" x2="21.46" y2="60.46"/><line class="cls-2" x1="31.47" y1="51.26" x2="1.5" y2="51.26"/><line class="cls-2" x1="50.11" y1="51.26" x2="37.12" y2="51.26"/><line class="cls-2" x1="22.79" y1="32.86" x2="1.5" y2="32.86"/><line class="cls-2" x1="48.5" y1="32.86" x2="28.91" y2="32.86"/></g></g></svg>