<svg xmlns="http://www.w3.org/2000/svg" viewBox="0 0 76.21 65.36"><defs><style>.cls-1{fill:#bee3f8;}.cls-2,.cls-3{fill:none;stroke-linecap:round;stroke-width:3px;}.cls-2{stroke:#bee3f8;stroke-linejoin:round;}.cls-3{stroke:#63b3ed;stroke-miterlimit:10;}</style></defs><g id="Layer_2" data-name="Layer 2"><g id="Icons"><path class="cls-1" d="M33.86,48a2.76,2.76,0,1,1-5.52,0c0-1.73,2.76-5.22,2.76-5.22S33.86,46.28,33.86,48Z"/><path class="cls-1" d="M24.35,55.22A3.58,3.58,0,0,1,20.66,59,3.58,3.58,0,0,1,17,55.22c0-2.31,3.69-7,3.69-7S24.35,52.91,24.35,55.22Z"/><path class="cls-1" d="M43.94,60.8a4.48,4.48,0,1,1-8.95,0c0-2.8,4.48-8.46,4.48-8.46S43.94,58,43.94,60.8Z"/><path class="cls-2" d="M63.22,38.93A19.84,19.84,0,0,0,74.71,28.07a19.22,19.22,0,0,1-7.48,1.52,19.83,19.83,0,0,1-19.6-20,20.12,20.12,0,0,1,1.66-8A19.94,19.94,0,0,0,37.76,15.1"/><path class="cls-3" d="M13,52.43A11.51,11.51,0,1,1,16.5,30a16.83,16.83,0,0,1,32.61,3.92,9,9,0,0,1,1.18-.08,9.32,9.32,0,1,1,0,18.64h-4"/></g></g></svg>