<svg xmlns="http://www.w3.org/2000/svg" viewBox="0 0 61.11 50.31"><defs><style>.cls-1,.cls-2{fill:none;stroke-linecap:round;stroke-width:3px;}.cls-1{stroke:#bee3f8;stroke-linejoin:round;}.cls-2{stroke:#63b3ed;stroke-miterlimit:10;}</style></defs><g id="Layer_2" data-name="Layer 2"><g id="Icons"><line class="cls-1" x1="39.42" y1="48.81" x2="39.42" y2="36.6"/><line class="cls-1" x1="44.7" y1="39.66" x2="34.13" y2="45.76"/><line class="cls-1" x1="34.13" y1="39.66" x2="44.7" y2="45.76"/><line class="cls-1" x1="20.22" y1="45.56" x2="20.22" y2="35.6"/><line class="cls-1" x1="24.53" y1="38.09" x2="15.91" y2="43.07"/><line class="cls-1" x1="15.91" y1="38.09" x2="24.54" y2="43.07"/><line class="cls-1" x1="30.66" y1="35.19" x2="30.66" y2="27.83"/><line class="cls-1" x1="33.85" y1="29.67" x2="27.47" y2="33.35"/><line class="cls-1" x1="27.48" y1="29.67" x2="33.85" y2="33.35"/><path class="cls-2" d="M13,35.19A11.51,11.51,0,1,1,16.5,12.71a16.83,16.83,0,0,1,32.61,3.92,9,9,0,0,1,1.18-.09,9.33,9.33,0,0,1,0,18.65h-4"/></g></g></svg>