<svg xmlns="http://www.w3.org/2000/svg" viewBox="0 0 76.21 67.56"><defs><style>.cls-1,.cls-2{fill:none;stroke-linecap:round;stroke-width:3px;}.cls-1{stroke:#bee3f8;stroke-linejoin:round;}.cls-2{stroke:#63b3ed;stroke-miterlimit:10;}</style></defs><g id="Layer_2" data-name="Layer 2"><g id="Icons"><path class="cls-1" d="M63.22,38.93A19.84,19.84,0,0,0,74.71,28.07a19,19,0,0,1-7.48,1.52,19.83,19.83,0,0,1-19.6-20,20.12,20.12,0,0,1,1.66-8A19.94,19.94,0,0,0,37.76,15.1"/><line class="cls-1" x1="39.42" y1="66.06" x2="39.42" y2="53.85"/><line class="cls-1" x1="44.7" y1="56.9" x2="34.13" y2="63"/><line class="cls-1" x1="34.13" y1="56.9" x2="44.7" y2="63"/><line class="cls-1" x1="20.22" y1="62.8" x2="20.22" y2="52.85"/><line class="cls-1" x1="24.53" y1="55.34" x2="15.91" y2="60.32"/><line class="cls-1" x1="15.91" y1="55.34" x2="24.54" y2="60.32"/><line class="cls-1" x1="30.66" y1="52.43" x2="30.66" y2="45.07"/><line class="cls-1" x1="33.85" y1="46.91" x2="27.47" y2="50.59"/><line class="cls-1" x1="27.48" y1="46.91" x2="33.85" y2="50.59"/><path class="cls-2" d="M13,52.43A11.51,11.51,0,1,1,16.5,30a16.83,16.83,0,0,1,32.61,3.92,9,9,0,0,1,1.18-.08,9.32,9.32,0,1,1,0,18.64h-4"/></g></g></svg>