<svg xmlns="http://www.w3.org/2000/svg" viewBox="0 0 61.11 51.7"><defs><style>.cls-1{fill:none;stroke:#63b3ed;stroke-linecap:round;stroke-miterlimit:10;stroke-width:3px;}.cls-2{fill:#bee3f8;}</style></defs><g id="Layer_2" data-name="Layer 2"><g id="Icons"><path class="cls-1" d="M15.33,35.19H13A11.51,11.51,0,1,1,16.5,12.71a16.83,16.83,0,0,1,32.61,3.92,9.23,9.23,0,0,1,1.18-.09,9.33,9.33,0,0,1,0,18.65H44.83"/><path class="cls-2" d="M24.58,41.05a2.19,2.19,0,1,0-2.18,2.18A2.18,2.18,0,0,0,24.58,41.05Z"/><path class="cls-2" d="M33.6,38.44a2.18,2.18,0,1,0-2.18,2.18A2.18,2.18,0,0,0,33.6,38.44Z"/><path class="cls-2" d="M41.68,31.38a2.18,2.18,0,1,0-2.18,2.18A2.18,2.18,0,0,0,41.68,31.38Z"/><path class="cls-2" d="M31.47,49.52a2.18,2.18,0,1,0-2.18,2.18A2.18,2.18,0,0,0,31.47,49.52Z"/><path class="cls-2" d="M25.78,31.51a2.19,2.19,0,1,0-2.19,2.18A2.19,2.19,0,0,0,25.78,31.51Z"/><path class="cls-2" d="M40.94,44.9a2.19,2.19,0,1,0-2.18,2.18A2.19,2.19,0,0,0,40.94,44.9Z"/></g></g></svg>