<svg xmlns="http://www.w3.org/2000/svg" viewBox="0 0 76.21 61.72"><defs><style>.cls-1{fill:#bee3f8;}.cls-2,.cls-3{fill:none;stroke-linecap:round;stroke-width:3px;}.cls-2{stroke:#63b3ed;stroke-miterlimit:10;}.cls-3{stroke:#f3d24c;stroke-linejoin:round;}</style></defs><g id="Layer_2" data-name="Layer 2"><g id="Icons"><path class="cls-1" d="M27,52.65a2.76,2.76,0,1,1-5.52,0c0-1.74,2.76-5.23,2.76-5.23S27,50.91,27,52.65Z"/><path class="cls-1" d="M40.33,57.17a4.48,4.48,0,1,1-8.95,0c0-2.81,4.48-8.47,4.48-8.47S40.33,54.36,40.33,57.17Z"/><path class="cls-2" d="M16.74,52.34H13A11.51,11.51,0,1,1,16.5,29.86a16.83,16.83,0,0,1,32.61,3.92,9,9,0,0,1,1.18-.08,9.32,9.32,0,0,1,0,18.64h-4"/><path class="cls-3" d="M63.23,38.93A19.85,19.85,0,0,0,74.71,28.07a19.22,19.22,0,0,1-7.48,1.52,19.83,19.83,0,0,1-19.6-20,20.12,20.12,0,0,1,1.66-8A19.94,19.94,0,0,0,37.76,15.1"/></g></g></svg>