<svg xmlns="http://www.w3.org/2000/svg" viewBox="0 0 76.86 58.84"><defs><style>.cls-1,.cls-2{fill:none;stroke-linecap:round;stroke-width:3px;}.cls-1{stroke:#63b3ed;stroke-miterlimit:10;}.cls-2{stroke:#f3d24c;stroke-linejoin:round;}</style></defs><g id="Layer_2" data-name="Layer 2"><g id="Icons"><line class="cls-1" x1="40.6" y1="20.54" x2="17.23" y2="20.54"/><line class="cls-1" x1="57.93" y1="38.94" x2="18.61" y2="38.94"/><line class="cls-1" x1="13.46" y1="38.94" x2="6.85" y2="38.94"/><line class="cls-1" x1="38.7" y1="57.34" x2="21.46" y2="57.34"/><line class="cls-1" x1="31.47" y1="48.14" x2="1.5" y2="48.14"/><line class="cls-1" x1="50.11" y1="48.14" x2="37.12" y2="48.14"/><line class="cls-1" x1="22.79" y1="29.74" x2="1.5" y2="29.74"/><line class="cls-1" x1="48.5" y1="29.74" x2="28.91" y2="29.74"/><path class="cls-2" d="M63.87,38.93A19.87,19.87,0,0,0,75.36,28.07a19.26,19.26,0,0,1-7.48,1.52,19.82,19.82,0,0,1-19.6-20,20.29,20.29,0,0,1,1.65-8A20,20,0,0,0,38.41,15.1"/></g></g></svg>