<svg xmlns="http://www.w3.org/2000/svg" viewBox="0 0 61.11 58.77"><defs><style>.cls-1{fill:#bee3f8;}.cls-2{fill:#f3d24c;}.cls-3{fill:none;stroke:#63b3ed;stroke-linecap:round;stroke-miterlimit:10;stroke-width:3px;}</style></defs><g id="Layer_2" data-name="Layer 2"><g id="Icons"><path class="cls-1" d="M45.6,54.11a3.69,3.69,0,1,1-7.38,0c0-2.32,3.69-7,3.69-7S45.6,51.79,45.6,54.11Z"/><path class="cls-1" d="M20,47.52a2.8,2.8,0,1,1-5.6,0c0-1.76,2.8-5.3,2.8-5.3S20,45.76,20,47.52Z"/><polygon class="cls-2" points="25.74 18.77 36.07 18.77 30.2 34.98 38.37 34.98 26.2 58.77 29.07 39.27 22.74 39.27 25.74 18.77"/><path class="cls-3" d="M15.33,35.19H13A11.51,11.51,0,1,1,16.5,12.71a16.83,16.83,0,0,1,32.61,3.92,9.23,9.23,0,0,1,1.18-.09,9.33,9.33,0,0,1,0,18.65H44.83"/></g></g></svg>