<svg xmlns="http://www.w3.org/2000/svg" viewBox="0 0 76.21 76.01"><defs><style>.cls-1{fill:#f3d24c;}.cls-2,.cls-3{fill:none;stroke-linecap:round;stroke-width:3px;}.cls-2{stroke:#63b3ed;stroke-miterlimit:10;}.cls-3{stroke:#bee3f8;stroke-linejoin:round;}</style></defs><g id="Layer_2" data-name="Layer 2"><g id="Icons"><polygon class="cls-1" points="25.03 36.01 35.36 36.01 29.49 52.22 37.65 52.22 25.49 76.01 28.36 56.51 22.03 56.51 25.03 36.01"/><path class="cls-2" d="M15.33,52.43H13A11.51,11.51,0,1,1,16.5,30a16.83,16.83,0,0,1,32.61,3.92,9.28,9.28,0,0,1,10.5,9.24,9.33,9.33,0,0,1-9.32,9.32H44.83"/><path class="cls-3" d="M63.23,38.93A19.85,19.85,0,0,0,74.71,28.07a19.22,19.22,0,0,1-7.48,1.52,19.83,19.83,0,0,1-19.6-20,20.12,20.12,0,0,1,1.66-8A19.94,19.94,0,0,0,37.76,15.1"/></g></g></svg>