<svg xmlns="http://www.w3.org/2000/svg" viewBox="0 0 79.26 79.04"><defs><style>.cls-1,.cls-4{fill:none;stroke-linecap:round;stroke-miterlimit:10;stroke-width:3px;}.cls-1{stroke:#f3d24c;}.cls-2{fill:#bee3f8;}.cls-3{fill:#f3d24c;}.cls-4{stroke:#63b3ed;}</style></defs><g id="Layer_2" data-name="Layer 2"><g id="Icons"><line class="cls-1" x1="46.79" y1="10.99" x2="43.34" y2="1.5"/><line class="cls-1" x1="38.49" y1="17.96" x2="29.74" y2="12.91"/><line class="cls-1" x1="57.63" y1="10.99" x2="61.08" y2="1.5"/><line class="cls-1" x1="65.93" y1="17.96" x2="74.68" y2="12.91"/><line class="cls-1" x1="67.81" y1="28.63" x2="77.76" y2="30.39"/><line class="cls-1" x1="62.39" y1="38.02" x2="68.88" y2="45.75"/><path class="cls-1" d="M42.82,20.28a10.82,10.82,0,0,1,9.39-5.52A11,11,0,0,1,63.08,25.88a11.14,11.14,0,0,1-4.84,9.24"/><path class="cls-2" d="M45.6,74.37a3.69,3.69,0,1,1-7.38,0c0-2.31,3.69-7,3.69-7S45.6,72.06,45.6,74.37Z"/><path class="cls-2" d="M20,67.79a2.8,2.8,0,1,1-5.6,0c0-1.76,2.8-5.3,2.8-5.3S20,66,20,67.79Z"/><polygon class="cls-3" points="25.74 39.04 36.07 39.04 30.2 55.24 38.37 55.24 26.2 79.04 29.07 59.54 22.74 59.54 25.74 39.04"/><path class="cls-4" d="M15.33,55.46H13A11.52,11.52,0,1,1,16.5,33a16.83,16.83,0,0,1,32.61,3.92,11.5,11.5,0,0,1,1.18-.08,9.33,9.33,0,0,1,0,18.65H44.83"/></g></g></svg>