<svg xmlns="http://www.w3.org/2000/svg" viewBox="0 0 76.21 68.95"><defs><style>.cls-1,.cls-2{fill:none;stroke-linecap:round;stroke-width:3px;}.cls-1{stroke:#63b3ed;stroke-miterlimit:10;}.cls-2{stroke:#bee3f8;stroke-linejoin:round;}.cls-3{fill:#bee3f8;}</style></defs><g id="Layer_2" data-name="Layer 2"><g id="Icons"><path class="cls-1" d="M15.33,52.43H13A11.51,11.51,0,1,1,16.5,30a16.83,16.83,0,0,1,32.61,3.92,9.32,9.32,0,1,1,1.18,18.56H44.83"/><path class="cls-2" d="M63.23,38.93A19.85,19.85,0,0,0,74.71,28.07a19,19,0,0,1-7.48,1.52,19.83,19.83,0,0,1-19.6-20,20.12,20.12,0,0,1,1.66-8A19.94,19.94,0,0,0,37.76,15.1"/><path class="cls-3" d="M24.58,58.3a2.19,2.19,0,1,0-2.18,2.18A2.19,2.19,0,0,0,24.58,58.3Z"/><path class="cls-3" d="M33.6,55.68a2.18,2.18,0,1,0-2.18,2.19A2.19,2.19,0,0,0,33.6,55.68Z"/><path class="cls-3" d="M41.68,48.62a2.18,2.18,0,1,0-2.18,2.19A2.18,2.18,0,0,0,41.68,48.62Z"/><path class="cls-3" d="M31.47,66.77A2.18,2.18,0,1,0,29.29,69,2.18,2.18,0,0,0,31.47,66.77Z"/><path class="cls-3" d="M25.78,48.75a2.19,2.19,0,1,0-2.19,2.19A2.19,2.19,0,0,0,25.78,48.75Z"/><path class="cls-3" d="M40.94,62.15a2.19,2.19,0,1,0-2.18,2.18A2.19,2.19,0,0,0,40.94,62.15Z"/></g></g></svg>