<svg xmlns="http://www.w3.org/2000/svg" viewBox="0 0 76.21 53.84"><defs><style>.cls-1,.cls-2{fill:none;stroke-width:3px;}.cls-1{stroke:#63b3ed;stroke-miterlimit:10;}.cls-2{stroke:#f3d24c;stroke-linecap:round;stroke-linejoin:round;}</style></defs><g id="Layer_2" data-name="Layer 2"><g id="Icons"><path class="cls-1" d="M50.29,33.7a9.23,9.23,0,0,0-1.18.08A16.83,16.83,0,0,0,16.5,29.86,11.51,11.51,0,1,0,13,52.34H50.29a9.32,9.32,0,0,0,0-18.64Z"/><path class="cls-2" d="M63.23,38.93A19.85,19.85,0,0,0,74.71,28.07a19.22,19.22,0,0,1-7.48,1.52,19.83,19.83,0,0,1-19.6-20,20.12,20.12,0,0,1,1.66-8A19.94,19.94,0,0,0,37.76,15.1"/></g></g></svg>