<svg xmlns="http://www.w3.org/2000/svg" viewBox="0 0 76.12 60.96"><defs><style>.cls-1,.cls-2{fill:none;stroke-linecap:round;stroke-width:3px;}.cls-1{stroke:#bee3f8;stroke-linejoin:round;}.cls-2{stroke:#63b3ed;stroke-miterlimit:10;}</style></defs><g id="Layer_2" data-name="Layer 2"><g id="Icons"><path class="cls-1" d="M63.13,38.93A19.87,19.87,0,0,0,74.62,28.07a19.08,19.08,0,0,1-7.48,1.52,19.83,19.83,0,0,1-19.61-20,20.29,20.29,0,0,1,1.66-8A19.93,19.93,0,0,0,37.67,15.1"/><path class="cls-2" d="M20,52.43H13A11.51,11.51,0,1,1,16.5,30a16.83,16.83,0,0,1,32.61,3.92,9,9,0,0,1,1.18-.08,9.32,9.32,0,1,1,0,18.64H41.18"/><line class="cls-1" x1="30.55" y1="59.46" x2="30.55" y2="47.25"/><line class="cls-1" x1="35.84" y1="50.3" x2="25.27" y2="56.41"/><line class="cls-1" x1="25.27" y1="50.3" x2="35.84" y2="56.41"/></g></g></svg>