<svg xmlns="http://www.w3.org/2000/svg" viewBox="0 0 76.12 59.09"><defs><style>.cls-1{fill:#bee3f8;}.cls-2,.cls-3{fill:none;stroke-linecap:round;stroke-width:3px;}.cls-2{stroke:#63b3ed;stroke-miterlimit:10;}.cls-3{stroke:#bee3f8;stroke-linejoin:round;}</style></defs><g id="Layer_2" data-name="Layer 2"><g id="Icons"><path class="cls-1" d="M26.08,54.54a4.48,4.48,0,1,0,9,0c0-2.81-4.48-8.47-4.48-8.47S26.08,51.73,26.08,54.54Z"/><path class="cls-2" d="M20,52.43H13A11.51,11.51,0,1,1,16.5,30a16.83,16.83,0,0,1,32.61,3.92,9,9,0,0,1,1.18-.09,9.33,9.33,0,0,1,0,18.65H41.18"/><path class="cls-3" d="M63.13,38.93A19.87,19.87,0,0,0,74.62,28.07a19.26,19.26,0,0,1-7.48,1.52,19.83,19.83,0,0,1-19.61-20,20.29,20.29,0,0,1,1.66-8A19.93,19.93,0,0,0,37.67,15.1"/></g></g></svg>