<svg xmlns="http://www.w3.org/2000/svg" viewBox="0 0 79.26 70.58"><defs><style>.cls-1,.cls-2,.cls-3{fill:none;stroke-linecap:round;stroke-width:3px;}.cls-1{stroke:#f3d24c;}.cls-1,.cls-3{stroke-miterlimit:10;}.cls-2{stroke:#bee3f8;stroke-linejoin:round;}.cls-3{stroke:#63b3ed;}</style></defs><g id="Layer_2" data-name="Layer 2"><g id="Icons"><line class="cls-1" x1="46.79" y1="10.99" x2="43.34" y2="1.5"/><line class="cls-1" x1="38.49" y1="17.96" x2="29.74" y2="12.91"/><line class="cls-1" x1="57.63" y1="10.99" x2="61.08" y2="1.5"/><line class="cls-1" x1="65.93" y1="17.96" x2="74.68" y2="12.91"/><line class="cls-1" x1="67.81" y1="28.63" x2="77.76" y2="30.39"/><line class="cls-1" x1="62.4" y1="38.02" x2="68.88" y2="45.76"/><path class="cls-1" d="M42.82,20.28a10.82,10.82,0,0,1,9.39-5.52A11,11,0,0,1,63.08,25.88a11.17,11.17,0,0,1-4.84,9.25"/><line class="cls-2" x1="39.42" y1="69.08" x2="39.42" y2="56.88"/><line class="cls-2" x1="44.7" y1="59.93" x2="34.13" y2="66.03"/><line class="cls-2" x1="34.13" y1="59.93" x2="44.7" y2="66.03"/><line class="cls-2" x1="20.22" y1="65.83" x2="20.22" y2="55.88"/><line class="cls-2" x1="24.53" y1="58.36" x2="15.91" y2="63.34"/><line class="cls-2" x1="15.91" y1="58.36" x2="24.54" y2="63.34"/><line class="cls-2" x1="30.66" y1="55.46" x2="30.66" y2="48.1"/><line class="cls-2" x1="33.85" y1="49.94" x2="27.48" y2="53.62"/><line class="cls-2" x1="27.48" y1="49.94" x2="33.85" y2="53.62"/><path class="cls-3" d="M13,55.46A11.51,11.51,0,1,1,16.5,33,16.83,16.83,0,0,1,49.11,36.9a9.32,9.32,0,1,1,1.18,18.56h-4"/></g></g></svg>