<svg xmlns="http://www.w3.org/2000/svg" viewBox="0 0 79.26 64.84"><defs><style>.cls-1{fill:#bee3f8;}.cls-2,.cls-3{fill:none;stroke-linecap:round;stroke-miterlimit:10;stroke-width:3px;}.cls-2{stroke:#63b3ed;}.cls-3{stroke:#f3d24c;}</style></defs><g id="Layer_2" data-name="Layer 2"><g id="Icons"><path class="cls-1" d="M27,55.76a2.76,2.76,0,1,1-5.52,0c0-1.73,2.76-5.22,2.76-5.22S27,54,27,55.76Z"/><path class="cls-1" d="M40.33,60.28a4.48,4.48,0,1,1-8.95,0c0-2.8,4.48-8.46,4.48-8.46S40.33,57.48,40.33,60.28Z"/><path class="cls-2" d="M16.74,55.45H13A11.51,11.51,0,1,1,16.5,33a16.83,16.83,0,0,1,32.61,3.92,9,9,0,0,1,1.18-.08,9.32,9.32,0,0,1,0,18.64h-4"/><line class="cls-3" x1="46.79" y1="10.99" x2="43.34" y2="1.5"/><line class="cls-3" x1="38.49" y1="17.96" x2="29.75" y2="12.91"/><line class="cls-3" x1="57.63" y1="10.99" x2="61.09" y2="1.5"/><line class="cls-3" x1="65.94" y1="17.96" x2="74.68" y2="12.91"/><line class="cls-3" x1="67.82" y1="28.63" x2="77.76" y2="30.39"/><line class="cls-3" x1="62.4" y1="38.02" x2="68.89" y2="45.75"/><path class="cls-3" d="M42.83,20.28a10.81,10.81,0,0,1,9.38-5.52A11,11,0,0,1,63.09,25.88a11.14,11.14,0,0,1-4.84,9.24"/></g></g></svg>