<svg xmlns="http://www.w3.org/2000/svg" viewBox="0 0 79.26 74.45"><defs><style>.cls-1,.cls-2,.cls-4{fill:none;stroke-linecap:round;stroke-width:3px;}.cls-1{stroke:#f3d24c;}.cls-1,.cls-2{stroke-miterlimit:10;}.cls-2{stroke:#63b3ed;}.cls-3{fill:#bee3f8;}.cls-4{stroke:#bee3f8;stroke-linejoin:round;}</style></defs><g id="Layer_2" data-name="Layer 2"><g id="Icons"><line class="cls-1" x1="46.79" y1="10.99" x2="43.34" y2="1.5"/><line class="cls-1" x1="38.49" y1="17.96" x2="29.74" y2="12.91"/><line class="cls-1" x1="57.63" y1="10.99" x2="61.08" y2="1.5"/><line class="cls-1" x1="65.93" y1="17.96" x2="74.68" y2="12.91"/><line class="cls-1" x1="67.81" y1="28.63" x2="77.76" y2="30.39"/><line class="cls-1" x1="62.39" y1="38.02" x2="68.88" y2="45.76"/><path class="cls-1" d="M42.82,20.28a10.82,10.82,0,0,1,9.39-5.52A11,11,0,0,1,63.08,25.88a11.17,11.17,0,0,1-4.84,9.25"/><path class="cls-2" d="M13,55.46A11.51,11.51,0,1,1,16.5,33,16.83,16.83,0,0,1,49.11,36.9a9.23,9.23,0,0,1,1.18-.09,9.33,9.33,0,0,1,0,18.65"/><path class="cls-3" d="M35.3,51.85a2.76,2.76,0,1,1-5.52,0c0-1.73,2.76-5.22,2.76-5.22S35.3,50.12,35.3,51.85Z"/><path class="cls-3" d="M32.05,70.69a3.69,3.69,0,1,1-7.37,0c0-2.31,3.68-7,3.68-7S32.05,68.38,32.05,70.69Z"/><line class="cls-4" x1="20.55" y1="61.33" x2="20.55" y2="53.98"/><line class="cls-4" x1="23.74" y1="55.82" x2="17.36" y2="59.5"/><line class="cls-4" x1="17.37" y1="55.82" x2="23.74" y2="59.5"/><line class="cls-4" x1="41.54" y1="69.08" x2="41.54" y2="56.88"/><line class="cls-4" x1="46.83" y1="59.93" x2="36.26" y2="66.03"/><line class="cls-4" x1="36.26" y1="59.93" x2="46.83" y2="66.03"/></g></g></svg>