<svg xmlns="http://www.w3.org/2000/svg" viewBox="0 0 79.26 68.38"><defs><style>.cls-1,.cls-3{fill:none;stroke-linecap:round;stroke-miterlimit:10;stroke-width:3px;}.cls-1{stroke:#f3d24c;}.cls-2{fill:#bee3f8;}.cls-3{stroke:#63b3ed;}</style></defs><g id="Layer_2" data-name="Layer 2"><g id="Icons"><line class="cls-1" x1="46.79" y1="10.99" x2="43.34" y2="1.5"/><line class="cls-1" x1="38.49" y1="17.96" x2="29.74" y2="12.91"/><line class="cls-1" x1="57.63" y1="10.99" x2="61.08" y2="1.5"/><line class="cls-1" x1="65.93" y1="17.96" x2="74.68" y2="12.91"/><line class="cls-1" x1="67.81" y1="28.63" x2="77.76" y2="30.39"/><line class="cls-1" x1="62.4" y1="38.02" x2="68.88" y2="45.75"/><path class="cls-1" d="M42.82,20.28a10.82,10.82,0,0,1,9.39-5.52A11,11,0,0,1,63.08,25.88a11.14,11.14,0,0,1-4.84,9.24"/><path class="cls-2" d="M33.86,51a2.76,2.76,0,1,1-5.52,0c0-1.73,2.76-5.22,2.76-5.22S33.86,49.31,33.86,51Z"/><path class="cls-2" d="M24.35,58.25A3.58,3.58,0,0,1,20.66,62,3.57,3.57,0,0,1,17,58.25c0-2.31,3.68-7,3.68-7S24.35,55.94,24.35,58.25Z"/><path class="cls-2" d="M43.94,63.83a4.48,4.48,0,1,1-8.95,0c0-2.81,4.48-8.46,4.48-8.46S43.94,61,43.94,63.83Z"/><path class="cls-3" d="M13,55.46A11.52,11.52,0,1,1,16.5,33a16.83,16.83,0,0,1,32.61,3.92,11.5,11.5,0,0,1,1.18-.08,9.33,9.33,0,0,1,0,18.65h-4"/></g></g></svg>