<svg xmlns="http://www.w3.org/2000/svg" viewBox="0 0 79.14 71.98"><defs><style>.cls-1,.cls-2{fill:none;stroke-linecap:round;stroke-miterlimit:10;stroke-width:3px;}.cls-1{stroke:#f3d24c;}.cls-2{stroke:#63b3ed;}.cls-3{fill:#bee3f8;}</style></defs><g id="Layer_2" data-name="Layer 2"><g id="Icons"><line class="cls-1" x1="46.67" y1="10.99" x2="43.22" y2="1.5"/><line class="cls-1" x1="38.37" y1="17.96" x2="29.62" y2="12.91"/><line class="cls-1" x1="57.51" y1="10.99" x2="60.96" y2="1.5"/><line class="cls-1" x1="65.81" y1="17.96" x2="74.56" y2="12.91"/><line class="cls-1" x1="67.69" y1="28.63" x2="77.64" y2="30.39"/><line class="cls-1" x1="62.28" y1="38.02" x2="68.76" y2="45.76"/><path class="cls-1" d="M42.7,20.28a10.82,10.82,0,0,1,9.39-5.52A11,11,0,0,1,63,25.88a11.18,11.18,0,0,1-4.85,9.25"/><path class="cls-2" d="M15.33,55.46H13A11.51,11.51,0,1,1,16.5,33,16.83,16.83,0,0,1,49.11,36.9a9.23,9.23,0,0,1,1.18-.09,9.33,9.33,0,0,1,0,18.65H44.83"/><path class="cls-3" d="M24.58,61.32a2.18,2.18,0,1,0-2.18,2.19A2.18,2.18,0,0,0,24.58,61.32Z"/><path class="cls-3" d="M33.6,58.71a2.18,2.18,0,1,0-2.18,2.18A2.19,2.19,0,0,0,33.6,58.71Z"/><path class="cls-3" d="M41.68,51.65a2.18,2.18,0,1,0-2.18,2.18A2.17,2.17,0,0,0,41.68,51.65Z"/><path class="cls-3" d="M31.48,69.79A2.19,2.19,0,1,0,29.29,72,2.19,2.19,0,0,0,31.48,69.79Z"/><path class="cls-3" d="M25.78,51.78A2.19,2.19,0,1,0,23.59,54,2.18,2.18,0,0,0,25.78,51.78Z"/><path class="cls-3" d="M40.94,65.17a2.19,2.19,0,1,0-2.18,2.19A2.19,2.19,0,0,0,40.94,65.17Z"/></g></g></svg>